<svg fill="#000000" viewBox="0 0 32 32" style="fill-rule:evenodd;clip-rule:evenodd;stroke-linejoin:round;stroke-miterlimit:2;" version="1.1" xml:space="preserve" xmlns="http://www.w3.org/2000/svg" xmlns:serif="http://www.serif.com/" xmlns:xlink="http://www.w3.org/1999/xlink"><g id="SVGRepo_bgCarrier" stroke-width="0"></g><g id="SVGRepo_tracerCarrier" stroke-linecap="round" stroke-linejoin="round"></g><g id="SVGRepo_iconCarrier"> <g transform="matrix(1,0,0,1,-192,-144)"> <g transform="matrix(1.42857,0,0,0.842105,-90.5714,26.4737)"> <path d="M216,155L202,155L202,171.625C202,172.255 202.148,172.859 202.41,173.304C202.673,173.75 203.029,174 203.4,174C206.082,174 211.918,174 214.6,174C214.971,174 215.327,173.75 215.59,173.304C215.852,172.859 216,172.255 216,171.625C216,166.528 216,155 216,155Z" style="fill:#ff00ea;"></path> </g> <g transform="matrix(1.71429,0,0,0.210526,-150.286,120.368)"> <path d="M216,159.75C216,157.127 215.739,155 215.417,155C213.139,155 204.861,155 202.583,155C202.261,155 202,157.127 202,159.75C202,162.651 202,166.349 202,169.25C202,171.873 202.261,174 202.583,174C204.861,174 213.139,174 215.417,174C215.739,174 216,171.873 216,169.25C216,166.349 216,162.651 216,159.75Z" style="fill:#ff00ea;"></path> </g> <g transform="matrix(-0.529129,-0.866025,0.916479,-0.5,178.485,405.682)"> <path d="M209.5,147C210.88,147 212,148.12 212,149.5C212,150.88 210.88,152 209.5,152C208.12,152 206,150.88 206,149.5C206,148.12 208.12,147 209.5,147Z" style="fill:#ff00ea;"></path> </g> <g transform="matrix(0.529129,-0.866025,-0.916479,-0.5,237.515,405.682)"> <path d="M209.5,147C210.88,147 212,148.12 212,149.5C212,150.88 210.88,152 209.5,152C208.12,152 206,150.88 206,149.5C206,148.12 208.12,147 209.5,147Z" style="fill:#ff00ea;"></path> </g> <path d="M202.075,152L197,152C195.895,152 195,152.895 195,154L195,156C195,157.105 195.895,158 197,158C197,158 197,171 197,171C197,171.796 197.316,172.559 197.879,173.121C198.441,173.684 199.204,174 200,174L216,174C216.796,174 217.559,173.684 218.121,173.121C218.684,172.559 219,171.796 219,171L219,158C220.105,158 221,157.105 221,156L221,154C221,152.895 220.105,152 219,152L213.925,152C214.155,151.761 214.35,151.515 214.499,151.271L214.499,151.271C215.527,149.589 214.937,147.428 213.156,146.457C211.424,145.512 209.21,146.092 208.21,147.729C208.135,147.852 208.064,147.985 208,148.127C207.936,147.985 207.865,147.852 207.79,147.729C206.79,146.092 204.576,145.512 202.844,146.457C201.063,147.428 200.473,149.589 201.501,151.271L201.501,151.271C201.65,151.515 201.845,151.761 202.075,152ZM217,158L217,171C217,171.265 216.895,171.52 216.707,171.707C216.52,171.895 216.265,172 216,172L211,172L211,158L217,158ZM209,158L207,158L207,172L209,172L209,158ZM205,172L200,172C199.735,172 199.48,171.895 199.293,171.707C199.105,171.52 199,171.265 199,171L199,158L205,158L205,172ZM205,154L197,154L197,156L205,156L205,154ZM207,156L207,154L209,154L209,156L207,156ZM211,154L211,156L219,156L219,154L211,154ZM212.792,150.229C212.454,150.782 211.712,151.344 210.969,151.601C210.616,151.724 210.26,151.805 209.981,151.653C209.727,151.515 209.634,151.209 209.575,150.889C209.443,150.174 209.588,149.309 209.916,148.771C210.376,148.018 211.401,147.778 212.198,148.213C212.947,148.621 213.224,149.521 212.792,150.229L212.792,150.229ZM203.208,150.229C202.776,149.521 203.053,148.621 203.802,148.213C204.599,147.778 205.624,148.018 206.084,148.771C206.412,149.309 206.557,150.174 206.425,150.889C206.366,151.209 206.273,151.515 206.019,151.653C205.74,151.805 205.384,151.724 205.031,151.601C204.288,151.344 203.546,150.782 203.208,150.229L203.208,150.229Z" style="fill:#ff70d9;"></path> </g> </g></svg>